<mxfile host="app.diagrams.net" agent="Mozilla/5.0 (Windows NT 10.0; Win64; x64) AppleWebKit/537.36 (KHTML, like Gecko) Chrome/133.0.0.0 Safari/537.36 Edg/133.0.0.0" version="26.0.14">
  <diagram name="1 oldal" id="ZJNlt0p2cuj-EyZ9qJeg">
    <mxGraphModel dx="1226" dy="1861" grid="1" gridSize="10" guides="1" tooltips="1" connect="1" arrows="1" fold="1" page="1" pageScale="1" pageWidth="827" pageHeight="1169" math="0" shadow="0">
      <root>
        <mxCell id="0" />
        <mxCell id="1" parent="0" />
        <mxCell id="0xlQwM45gvaiOn_g7P1d-1" value="User" style="shape=umlActor;verticalLabelPosition=bottom;verticalAlign=top;html=1;outlineConnect=0;" vertex="1" parent="1">
          <mxGeometry x="70" y="-10" width="30" height="60" as="geometry" />
        </mxCell>
        <mxCell id="0xlQwM45gvaiOn_g7P1d-10" value="" style="endArrow=block;html=1;rounded=0;align=center;verticalAlign=bottom;endFill=0;labelBackgroundColor=none;endSize=8;exitX=0.5;exitY=0;exitDx=0;exitDy=0;exitPerimeter=0;" edge="1" parent="1" source="0xlQwM45gvaiOn_g7P1d-48">
          <mxGeometry relative="1" as="geometry">
            <mxPoint x="30" y="180" as="sourcePoint" />
            <mxPoint x="80" y="80" as="targetPoint" />
            <Array as="points">
              <mxPoint x="80" y="180" />
              <mxPoint x="35" y="170" />
              <mxPoint x="80" y="170" />
            </Array>
          </mxGeometry>
        </mxCell>
        <mxCell id="0xlQwM45gvaiOn_g7P1d-13" value="Admin" style="shape=umlActor;verticalLabelPosition=bottom;verticalAlign=top;html=1;outlineConnect=0;" vertex="1" parent="1">
          <mxGeometry x="130" y="564" width="30" height="60" as="geometry" />
        </mxCell>
        <mxCell id="0xlQwM45gvaiOn_g7P1d-17" value="LandLord" style="shape=umlActor;verticalLabelPosition=bottom;verticalAlign=top;html=1;outlineConnect=0;" vertex="1" parent="1">
          <mxGeometry x="130" y="460" width="30" height="60" as="geometry" />
        </mxCell>
        <mxCell id="0xlQwM45gvaiOn_g7P1d-26" value="&lt;div&gt;&lt;br&gt;&lt;/div&gt;&lt;div&gt;&lt;br&gt;&lt;/div&gt;" style="endArrow=none;html=1;rounded=0;align=center;verticalAlign=top;endFill=0;labelBackgroundColor=none;entryX=0.5;entryY=0;entryDx=0;entryDy=0;entryPerimeter=0;" edge="1" parent="1" target="0xlQwM45gvaiOn_g7P1d-17">
          <mxGeometry relative="1" as="geometry">
            <mxPoint x="80" y="170" as="sourcePoint" />
            <mxPoint x="270" y="170" as="targetPoint" />
            <Array as="points">
              <mxPoint x="145" y="170" />
            </Array>
          </mxGeometry>
        </mxCell>
        <mxCell id="0xlQwM45gvaiOn_g7P1d-33" value="" style="rounded=0;whiteSpace=wrap;html=1;direction=south;" vertex="1" parent="1">
          <mxGeometry x="170" y="-50" width="460" height="700" as="geometry" />
        </mxCell>
        <mxCell id="0xlQwM45gvaiOn_g7P1d-34" value="Login" style="ellipse;whiteSpace=wrap;html=1;" vertex="1" parent="1">
          <mxGeometry x="230" y="10" width="90" height="40" as="geometry" />
        </mxCell>
        <mxCell id="0xlQwM45gvaiOn_g7P1d-37" value="See listings" style="ellipse;whiteSpace=wrap;html=1;" vertex="1" parent="1">
          <mxGeometry x="230" y="60" width="90" height="40" as="geometry" />
        </mxCell>
        <mxCell id="0xlQwM45gvaiOn_g7P1d-39" value="Search for listings" style="ellipse;whiteSpace=wrap;html=1;" vertex="1" parent="1">
          <mxGeometry x="230" y="120" width="90" height="40" as="geometry" />
        </mxCell>
        <mxCell id="0xlQwM45gvaiOn_g7P1d-43" value="" style="endArrow=block;html=1;rounded=0;align=center;verticalAlign=bottom;endFill=0;labelBackgroundColor=none;endSize=8;" edge="1" parent="1">
          <mxGeometry relative="1" as="geometry">
            <mxPoint x="80" y="190" as="sourcePoint" />
            <mxPoint x="80" y="80" as="targetPoint" />
            <Array as="points" />
          </mxGeometry>
        </mxCell>
        <mxCell id="0xlQwM45gvaiOn_g7P1d-48" value="Renter/Buyer" style="shape=umlActor;verticalLabelPosition=bottom;verticalAlign=top;html=1;outlineConnect=0;" vertex="1" parent="1">
          <mxGeometry x="100" y="340" width="30" height="60" as="geometry" />
        </mxCell>
        <mxCell id="0xlQwM45gvaiOn_g7P1d-51" value="" style="endArrow=none;html=1;rounded=0;exitX=1;exitY=0.3333333333333333;exitDx=0;exitDy=0;exitPerimeter=0;entryX=0;entryY=0.5;entryDx=0;entryDy=0;" edge="1" parent="1" source="0xlQwM45gvaiOn_g7P1d-1" target="0xlQwM45gvaiOn_g7P1d-34">
          <mxGeometry width="50" height="50" relative="1" as="geometry">
            <mxPoint x="220" y="70" as="sourcePoint" />
            <mxPoint x="270" y="20" as="targetPoint" />
            <Array as="points">
              <mxPoint x="130" y="10" />
              <mxPoint x="190" y="10" />
              <mxPoint x="190" y="30" />
            </Array>
          </mxGeometry>
        </mxCell>
        <mxCell id="0xlQwM45gvaiOn_g7P1d-52" value="" style="endArrow=none;html=1;rounded=0;entryX=0;entryY=0.5;entryDx=0;entryDy=0;" edge="1" parent="1" target="0xlQwM45gvaiOn_g7P1d-37">
          <mxGeometry width="50" height="50" relative="1" as="geometry">
            <mxPoint x="130" y="10" as="sourcePoint" />
            <mxPoint x="275" y="60" as="targetPoint" />
            <Array as="points">
              <mxPoint x="130" y="10" />
              <mxPoint x="190" y="10" />
              <mxPoint x="190" y="80" />
            </Array>
          </mxGeometry>
        </mxCell>
        <mxCell id="0xlQwM45gvaiOn_g7P1d-53" value="" style="endArrow=none;html=1;rounded=0;exitX=1;exitY=0.3333333333333333;exitDx=0;exitDy=0;exitPerimeter=0;entryX=0;entryY=0.5;entryDx=0;entryDy=0;" edge="1" parent="1" source="0xlQwM45gvaiOn_g7P1d-1" target="0xlQwM45gvaiOn_g7P1d-39">
          <mxGeometry width="50" height="50" relative="1" as="geometry">
            <mxPoint x="110" y="70" as="sourcePoint" />
            <mxPoint x="285" y="120" as="targetPoint" />
            <Array as="points">
              <mxPoint x="130" y="10" />
              <mxPoint x="190" y="10" />
              <mxPoint x="190" y="40" />
              <mxPoint x="190" y="140" />
            </Array>
          </mxGeometry>
        </mxCell>
        <mxCell id="0xlQwM45gvaiOn_g7P1d-55" value="See messages" style="ellipse;whiteSpace=wrap;html=1;" vertex="1" parent="1">
          <mxGeometry x="230" y="170" width="90" height="40" as="geometry" />
        </mxCell>
        <mxCell id="0xlQwM45gvaiOn_g7P1d-56" value="Send message" style="ellipse;whiteSpace=wrap;html=1;" vertex="1" parent="1">
          <mxGeometry x="230" y="220" width="90" height="40" as="geometry" />
        </mxCell>
        <mxCell id="0xlQwM45gvaiOn_g7P1d-57" value="" style="endArrow=none;html=1;rounded=0;entryX=0;entryY=0.5;entryDx=0;entryDy=0;" edge="1" parent="1" target="0xlQwM45gvaiOn_g7P1d-55">
          <mxGeometry width="50" height="50" relative="1" as="geometry">
            <mxPoint x="190" y="120" as="sourcePoint" />
            <mxPoint x="300" y="170" as="targetPoint" />
            <Array as="points">
              <mxPoint x="190" y="190" />
            </Array>
          </mxGeometry>
        </mxCell>
        <mxCell id="0xlQwM45gvaiOn_g7P1d-58" value="" style="endArrow=none;html=1;rounded=0;entryX=0;entryY=0.5;entryDx=0;entryDy=0;" edge="1" parent="1" target="0xlQwM45gvaiOn_g7P1d-56">
          <mxGeometry width="50" height="50" relative="1" as="geometry">
            <mxPoint x="190" y="170" as="sourcePoint" />
            <mxPoint x="270" y="190" as="targetPoint" />
            <Array as="points">
              <mxPoint x="190" y="240" />
            </Array>
          </mxGeometry>
        </mxCell>
        <mxCell id="0xlQwM45gvaiOn_g7P1d-59" value="Create listing" style="ellipse;whiteSpace=wrap;html=1;" vertex="1" parent="1">
          <mxGeometry x="235" y="400" width="90" height="40" as="geometry" />
        </mxCell>
        <mxCell id="0xlQwM45gvaiOn_g7P1d-60" value="" style="endArrow=none;html=1;rounded=0;entryX=0;entryY=0.5;entryDx=0;entryDy=0;exitX=1;exitY=0.3333333333333333;exitDx=0;exitDy=0;exitPerimeter=0;" edge="1" parent="1" source="0xlQwM45gvaiOn_g7P1d-17" target="0xlQwM45gvaiOn_g7P1d-59">
          <mxGeometry width="50" height="50" relative="1" as="geometry">
            <mxPoint x="220" y="410" as="sourcePoint" />
            <mxPoint x="270" y="360" as="targetPoint" />
            <Array as="points">
              <mxPoint x="220" y="480" />
              <mxPoint x="220" y="450" />
            </Array>
          </mxGeometry>
        </mxCell>
        <mxCell id="0xlQwM45gvaiOn_g7P1d-63" value="Edit listing" style="ellipse;whiteSpace=wrap;html=1;" vertex="1" parent="1">
          <mxGeometry x="230" y="500" width="90" height="40" as="geometry" />
        </mxCell>
        <mxCell id="0xlQwM45gvaiOn_g7P1d-64" value="" style="endArrow=none;html=1;rounded=0;exitX=0;exitY=0.5;exitDx=0;exitDy=0;entryX=0;entryY=0.5;entryDx=0;entryDy=0;" edge="1" parent="1" source="0xlQwM45gvaiOn_g7P1d-63" target="0xlQwM45gvaiOn_g7P1d-59">
          <mxGeometry width="50" height="50" relative="1" as="geometry">
            <mxPoint x="220" y="500" as="sourcePoint" />
            <mxPoint x="220" y="450" as="targetPoint" />
            <Array as="points">
              <mxPoint x="220" y="500" />
              <mxPoint x="220" y="450" />
            </Array>
          </mxGeometry>
        </mxCell>
        <mxCell id="0xlQwM45gvaiOn_g7P1d-67" value="Make offer" style="ellipse;whiteSpace=wrap;html=1;" vertex="1" parent="1">
          <mxGeometry x="220" y="360" width="90" height="40" as="geometry" />
        </mxCell>
        <mxCell id="0xlQwM45gvaiOn_g7P1d-69" value="Comment on listing" style="ellipse;whiteSpace=wrap;html=1;" vertex="1" parent="1">
          <mxGeometry x="230" y="270" width="90" height="40" as="geometry" />
        </mxCell>
        <mxCell id="0xlQwM45gvaiOn_g7P1d-70" value="" style="endArrow=none;html=1;rounded=0;" edge="1" parent="1">
          <mxGeometry width="50" height="50" relative="1" as="geometry">
            <mxPoint x="190" y="240" as="sourcePoint" />
            <mxPoint x="230" y="290" as="targetPoint" />
            <Array as="points">
              <mxPoint x="190" y="290" />
            </Array>
          </mxGeometry>
        </mxCell>
        <mxCell id="0xlQwM45gvaiOn_g7P1d-72" value="Manage listings" style="ellipse;whiteSpace=wrap;html=1;" vertex="1" parent="1">
          <mxGeometry x="230" y="545" width="90" height="40" as="geometry" />
        </mxCell>
        <mxCell id="0xlQwM45gvaiOn_g7P1d-73" value="Manage users" style="ellipse;whiteSpace=wrap;html=1;" vertex="1" parent="1">
          <mxGeometry x="230" y="600" width="90" height="40" as="geometry" />
        </mxCell>
        <mxCell id="0xlQwM45gvaiOn_g7P1d-74" value="" style="endArrow=none;html=1;rounded=0;exitX=1;exitY=0.3333333333333333;exitDx=0;exitDy=0;exitPerimeter=0;" edge="1" parent="1" source="0xlQwM45gvaiOn_g7P1d-48">
          <mxGeometry width="50" height="50" relative="1" as="geometry">
            <mxPoint x="170" y="420" as="sourcePoint" />
            <mxPoint x="220" y="370" as="targetPoint" />
          </mxGeometry>
        </mxCell>
        <mxCell id="0xlQwM45gvaiOn_g7P1d-75" value="" style="endArrow=none;html=1;rounded=0;exitX=1;exitY=0.3333333333333333;exitDx=0;exitDy=0;exitPerimeter=0;entryX=0;entryY=0.5;entryDx=0;entryDy=0;" edge="1" parent="1" source="0xlQwM45gvaiOn_g7P1d-13" target="0xlQwM45gvaiOn_g7P1d-72">
          <mxGeometry width="50" height="50" relative="1" as="geometry">
            <mxPoint x="220" y="590" as="sourcePoint" />
            <mxPoint x="270" y="540" as="targetPoint" />
          </mxGeometry>
        </mxCell>
        <mxCell id="0xlQwM45gvaiOn_g7P1d-76" value="" style="endArrow=none;html=1;rounded=0;exitX=1;exitY=0.3333333333333333;exitDx=0;exitDy=0;exitPerimeter=0;entryX=0.5;entryY=0;entryDx=0;entryDy=0;" edge="1" parent="1" source="0xlQwM45gvaiOn_g7P1d-13" target="0xlQwM45gvaiOn_g7P1d-73">
          <mxGeometry width="50" height="50" relative="1" as="geometry">
            <mxPoint x="220" y="590" as="sourcePoint" />
            <mxPoint x="270" y="540" as="targetPoint" />
            <Array as="points">
              <mxPoint x="200" y="600" />
            </Array>
          </mxGeometry>
        </mxCell>
        <mxCell id="0xlQwM45gvaiOn_g7P1d-78" value="" style="endArrow=classic;html=1;rounded=0;exitX=1;exitY=0.5;exitDx=0;exitDy=0;entryX=0;entryY=0.5;entryDx=0;entryDy=0;" edge="1" parent="1" source="0xlQwM45gvaiOn_g7P1d-34" target="0xlQwM45gvaiOn_g7P1d-79">
          <mxGeometry width="50" height="50" relative="1" as="geometry">
            <mxPoint x="360" y="60" as="sourcePoint" />
            <mxPoint x="410" y="10" as="targetPoint" />
          </mxGeometry>
        </mxCell>
        <mxCell id="0xlQwM45gvaiOn_g7P1d-80" value="&amp;lt;&amp;lt;exclude&amp;gt;&amp;gt;" style="edgeLabel;html=1;align=center;verticalAlign=middle;resizable=0;points=[];" vertex="1" connectable="0" parent="0xlQwM45gvaiOn_g7P1d-78">
          <mxGeometry x="0.0708" y="-1" relative="1" as="geometry">
            <mxPoint y="9" as="offset" />
          </mxGeometry>
        </mxCell>
        <mxCell id="0xlQwM45gvaiOn_g7P1d-79" value="Wrong credentials" style="ellipse;whiteSpace=wrap;html=1;" vertex="1" parent="1">
          <mxGeometry x="400" y="10" width="90" height="40" as="geometry" />
        </mxCell>
        <mxCell id="0xlQwM45gvaiOn_g7P1d-81" value="Respond to an offer" style="ellipse;whiteSpace=wrap;html=1;" vertex="1" parent="1">
          <mxGeometry x="230" y="450" width="100" height="40" as="geometry" />
        </mxCell>
        <mxCell id="0xlQwM45gvaiOn_g7P1d-84" value="" style="endArrow=none;html=1;rounded=0;entryX=0;entryY=0.5;entryDx=0;entryDy=0;" edge="1" parent="1" target="0xlQwM45gvaiOn_g7P1d-81">
          <mxGeometry width="50" height="50" relative="1" as="geometry">
            <mxPoint x="220" y="480" as="sourcePoint" />
            <mxPoint x="400" y="440" as="targetPoint" />
          </mxGeometry>
        </mxCell>
      </root>
    </mxGraphModel>
  </diagram>
</mxfile>
